<svg id="Layer_1" data-name="Layer 1" xmlns="http://www.w3.org/2000/svg" viewBox="0 0 1043.71 297.93"><defs><style>.cls-1{fill:#010101;}.cls-2{fill:#ef402a;}.cls-3,.cls-4{fill:#c53627;}.cls-4{font-size:20.69px;font-family:Futura-MediumItalic, Futura;font-weight:500;font-style:italic;}</style></defs><path class="cls-1" d="M156.46,70.88,53.32,240.22,0,70.88H36.61l25.78,95.81,53.8-95.81Z"/><path class="cls-1" d="M181.54,158.42q0,16.54,11.46,27.21,11.61,10.67,29.6,10.67,24.68,0,37.88-18.47l26.27,14.49q-13.69,18.47-28.17,25.78-14.65,7.49-36.61,7.48-34.86,0-55.55-20.53t-20.69-54.91q0-36,22.76-60.16,22.6-24,57.14-24,33.42,0,52.68,21.65Q297.89,109.4,297.89,146q0,3.83-.48,12.42Zm80.7-28.33q-5.58-34.71-38.36-34.7-31,0-40.43,34.7Z"/><polygon class="cls-1" points="884.53 157.04 895.41 68 860.23 68 848.89 160.5 884.53 157.04"/><polygon class="cls-1" points="769.72 169.69 805.36 165.77 813.1 103 845.56 103 849.54 70 817.07 70 825.67 0 790.49 0 781.9 70 762 70 758.02 103 777.92 103 769.72 169.69"/><polygon class="cls-1" points="733.96 173.32 746.63 70 711.45 70 698.32 176.89 733.96 173.32"/><path class="cls-1" d="M611.36,186.81a41.58,41.58,0,0,1-3.93-3.72q-12.1-13.05-12.1-34.86,0-23.23,12.89-38t32.95-14.8q13.2,0,22.92,5.89,9.87,6,20.69,19.89l4.46-35.81Q664.57,66,637.51,65.94q-33.1,0-55.39,23.72Q560,113.21,560,148.39q0,24.71,10.71,42.75Z"/><path class="cls-1" d="M409.36,208.33l118.46-12.62q17.91-21.54,17.91-51.3,0-34.86-22.6-56.5-22.44-22-58.09-22-36.29,0-60.48,23.24-24,23.08-24,57.93,0,34.06,23.23,56.35C405.57,205.19,407.43,206.8,409.36,208.33Zm20.35-98.46q13.85-14.48,35-14.48,20.37,0,32.95,13,12.57,12.57,12.57,34.22,0,23.55-13.53,38.52-13.36,15.12-34.06,15.12t-33.74-13.85q-13.05-13.53-13.05-35.81Q415.86,124.51,429.71,109.87Z"/><polygon class="cls-1" points="348.05 214.51 374.18 0 339.16 0 312.41 218.13 348.05 214.51"/><polygon class="cls-2" points="978.79 159.57 133.76 249.58 1043.71 249.58 978.79 159.57"/><polygon class="cls-3" points="849.18 201.17 133.76 249.58 1043.71 249.58 849.18 201.17"/><path class="cls-1" d="M736.88,260.42l-1.73,14a9.81,9.81,0,0,1,2.54-1.47,7.43,7.43,0,0,1,2.44-.38,7,7,0,0,1,5.34,2.22,7.81,7.81,0,0,1,2.1,5.62,8.65,8.65,0,0,1-2.39,6.25,7.8,7.8,0,0,1-5.87,2.52,7.66,7.66,0,0,1-5.66-2.49l-.27,2.12h-3.72l3.5-28.43Zm7,20.12a4.88,4.88,0,0,0-1.27-3.47,4.28,4.28,0,0,0-3.28-1.35,4.61,4.61,0,0,0-3.62,1.62,5.88,5.88,0,0,0-1.43,4.09,4.67,4.67,0,0,0,1.23,3.38,4.16,4.16,0,0,0,3.2,1.32,4.73,4.73,0,0,0,3.65-1.64A5.61,5.61,0,0,0,743.84,280.54Z"/><path class="cls-1" d="M766.41,273l-1.12,9.23a19.41,19.41,0,0,1-.34,2,10.19,10.19,0,0,1-.44,1.47,5,5,0,0,1-1.58,2,7.8,7.8,0,0,1-5,1.48,7,7,0,0,1-4.68-1.49,5.1,5.1,0,0,1-1.75-4.06c0-.26,0-.56,0-.91s.07-.75.13-1.2l1-8.57h3.72l-1.09,8.91c0,.38-.08.71-.1,1s0,.53,0,.72c0,1.67,1,2.51,2.95,2.51a3.06,3.06,0,0,0,2.36-.83,5.31,5.31,0,0,0,1-2.9l1.16-9.41Z"/><path class="cls-1" d="M781.08,274.74l-2.1,2.11a4.3,4.3,0,0,0-2.75-1.33,2.1,2.1,0,0,0-1.42.48,1.49,1.49,0,0,0-.57,1.19,1.57,1.57,0,0,0,.48,1.16,9.35,9.35,0,0,0,2,1.31,9.21,9.21,0,0,1,2.86,2.19,4,4,0,0,1,.77,2.54,4.56,4.56,0,0,1-1.56,3.62,6.25,6.25,0,0,1-4.16,1.35,6.9,6.9,0,0,1-5.78-3.15l2.44-1.7a4.22,4.22,0,0,0,3.2,1.8,2.28,2.28,0,0,0,1.54-.5,1.67,1.67,0,0,0,.58-1.32,1.47,1.47,0,0,0-.48-1.14,7.2,7.2,0,0,0-.83-.61,16.83,16.83,0,0,0-1.6-.92,7.76,7.76,0,0,1-2.47-1.94,4.14,4.14,0,0,1-.69-2.43,4.55,4.55,0,0,1,1.58-3.56,5.78,5.78,0,0,1,4-1.42A6.94,6.94,0,0,1,781.08,274.74Z"/><path class="cls-1" d="M789.26,273l-2,15.86h-3.72L785.54,273Zm1.16-7.54a1.9,1.9,0,0,1-.59,1.4,1.93,1.93,0,0,1-1.41.59,2,2,0,0,1-1.43-.61,2.11,2.11,0,0,1-.59-1.46A1.91,1.91,0,0,1,787,264a2.05,2.05,0,0,1,3.45,1.48Z"/><path class="cls-1" d="M798.17,273l-.17,1.47a6.9,6.9,0,0,1,4.46-1.85,5.26,5.26,0,0,1,3.72,1.29,4.67,4.67,0,0,1,1.37,3.54,23.75,23.75,0,0,1-.21,2.89l-1.06,8.52h-3.7l1.14-9.32c0-.35.08-.66.1-.93s0-.51,0-.72c0-1.44-.77-2.16-2.32-2.16a3.64,3.64,0,0,0-2.46.88,4.1,4.1,0,0,0-1.24,1.68,6.13,6.13,0,0,0-.37,1.24,15.41,15.41,0,0,0-.27,1.69l-.95,7.64h-3.72l2-15.86Z"/><path class="cls-1" d="M815.29,282.25a3.78,3.78,0,0,0,1.21,2.88,4.48,4.48,0,0,0,3.14,1.13,4.62,4.62,0,0,0,4-1.95l2.78,1.53a8.89,8.89,0,0,1-3,2.73,8.54,8.54,0,0,1-3.87.79,8,8,0,0,1-5.88-2.17,7.83,7.83,0,0,1-2.19-5.81,9,9,0,0,1,2.41-6.37,8,8,0,0,1,6.05-2.54,7.07,7.07,0,0,1,5.57,2.29,8.91,8.91,0,0,1,2.07,6.18c0,.27,0,.71-.05,1.31Zm8.54-3c-.39-2.45-1.75-3.67-4.06-3.67s-3.61,1.22-4.28,3.67Z"/><path class="cls-1" d="M842.23,274.74l-2.1,2.11a4.3,4.3,0,0,0-2.75-1.33A2.12,2.12,0,0,0,836,276a1.48,1.48,0,0,0-.56,1.19,1.56,1.56,0,0,0,.47,1.16,9.35,9.35,0,0,0,2,1.31,9.21,9.21,0,0,1,2.86,2.19,3.94,3.94,0,0,1,.77,2.54,4.56,4.56,0,0,1-1.56,3.62,6.23,6.23,0,0,1-4.16,1.35,6.91,6.91,0,0,1-5.78-3.15l2.44-1.7a4.22,4.22,0,0,0,3.2,1.8,2.28,2.28,0,0,0,1.54-.5,1.67,1.67,0,0,0,.59-1.32,1.47,1.47,0,0,0-.49-1.14,6.39,6.39,0,0,0-.83-.61,16.83,16.83,0,0,0-1.6-.92,7.76,7.76,0,0,1-2.47-1.94,4.14,4.14,0,0,1-.69-2.43,4.58,4.58,0,0,1,1.58-3.56,5.79,5.79,0,0,1,4-1.42A6.93,6.93,0,0,1,842.23,274.74Z"/><path class="cls-1" d="M856.15,274.74l-2.1,2.11a4.28,4.28,0,0,0-2.74-1.33,2.13,2.13,0,0,0-1.43.48,1.51,1.51,0,0,0-.56,1.19,1.6,1.6,0,0,0,.47,1.16,9.35,9.35,0,0,0,2,1.31,9.08,9.08,0,0,1,2.86,2.19,4,4,0,0,1,.78,2.54,4.57,4.57,0,0,1-1.57,3.62,6.23,6.23,0,0,1-4.16,1.35,6.88,6.88,0,0,1-5.77-3.15l2.44-1.7a4.21,4.21,0,0,0,3.2,1.8,2.3,2.3,0,0,0,1.54-.5,1.67,1.67,0,0,0,.58-1.32,1.44,1.44,0,0,0-.49-1.14,6.87,6.87,0,0,0-.82-.61c-.4-.26-.93-.57-1.6-.92a7.82,7.82,0,0,1-2.48-1.94,4.14,4.14,0,0,1-.69-2.43,4.58,4.58,0,0,1,1.58-3.56,5.8,5.8,0,0,1,4-1.42A6.92,6.92,0,0,1,856.15,274.74Z"/><path class="cls-1" d="M886.83,273l-2,15.86h-3.72l.22-1.71a7.5,7.5,0,0,1-5,2.08,6.72,6.72,0,0,1-5.14-2.13,7.85,7.85,0,0,1-2-5.54,9.21,9.21,0,0,1,2.27-6.44,7.66,7.66,0,0,1,5.91-2.5,6.81,6.81,0,0,1,2.89.55,8,8,0,0,1,2.48,1.92l.25-2.09Zm-4.53,7.48a4.85,4.85,0,0,0-1.21-3.42,4,4,0,0,0-3.13-1.33,4.44,4.44,0,0,0-3.5,1.63,6,6,0,0,0-1.42,4,5,5,0,0,0,1.18,3.42,3.87,3.87,0,0,0,3,1.33,4.64,4.64,0,0,0,3.56-1.66A5.92,5.92,0,0,0,882.3,280.47Z"/><path class="cls-1" d="M903.75,274.53l-.47,3.78a8.79,8.79,0,0,0-2.19-2.1,4.52,4.52,0,0,0-2.42-.62,4.42,4.42,0,0,0-3.49,1.56,6,6,0,0,0-1.36,4,5.22,5.22,0,0,0,1.28,3.68,4.36,4.36,0,0,0,3.35,1.4,6.58,6.58,0,0,0,4.07-1.7l-.48,3.92a10.83,10.83,0,0,1-4.11.88,7.55,7.55,0,0,1-5.68-2.27,8.22,8.22,0,0,1-2.17-5.9,8.72,8.72,0,0,1,2.34-6.21,7.73,7.73,0,0,1,5.86-2.51A8.72,8.72,0,0,1,903.75,274.53Z"/><path class="cls-1" d="M909.7,282.25a3.75,3.75,0,0,0,1.21,2.88,4.46,4.46,0,0,0,3.13,1.13,4.63,4.63,0,0,0,4-1.95l2.78,1.53a9,9,0,0,1-3,2.73,8.62,8.62,0,0,1-3.88.79,8,8,0,0,1-5.87-2.17,7.83,7.83,0,0,1-2.19-5.81,8.93,8.93,0,0,1,2.41-6.37,8,8,0,0,1,6-2.54,7.06,7.06,0,0,1,5.57,2.29,8.91,8.91,0,0,1,2.07,6.18c0,.27,0,.71,0,1.31Zm8.53-3q-.59-3.67-4.06-3.67c-2.18,0-3.61,1.22-4.27,3.67Z"/><path class="cls-1" d="M932.44,260.42,929,288.85h-3.72l3.5-28.43Z"/><path class="cls-1" d="M938,282.25a3.75,3.75,0,0,0,1.21,2.88,4.46,4.46,0,0,0,3.13,1.13,4.63,4.63,0,0,0,4-1.95l2.78,1.53a9,9,0,0,1-3,2.73,8.62,8.62,0,0,1-3.88.79,8,8,0,0,1-5.87-2.17,7.83,7.83,0,0,1-2.19-5.81,8.93,8.93,0,0,1,2.41-6.37,7.93,7.93,0,0,1,6-2.54,7.06,7.06,0,0,1,5.57,2.29,8.91,8.91,0,0,1,2.07,6.18c0,.27,0,.71,0,1.31Zm8.53-3q-.59-3.67-4.06-3.67c-2.18,0-3.61,1.22-4.27,3.67Z"/><path class="cls-1" d="M959.18,273l-.17,1.37a5.61,5.61,0,0,1,3.81-1.79,4.49,4.49,0,0,1,3.06,1.23l-2.37,3.07a3.17,3.17,0,0,0-2.06-.88,2.61,2.61,0,0,0-1.24.28,2.58,2.58,0,0,0-.94.87,5.53,5.53,0,0,0-.65,1.54,15.32,15.32,0,0,0-.42,2.26l-1,7.91h-3.72l2-15.86Z"/><path class="cls-1" d="M984,273l-2,15.86h-3.72l.22-1.71a7.46,7.46,0,0,1-5,2.08,6.72,6.72,0,0,1-5.14-2.13,7.85,7.85,0,0,1-2-5.54,9.21,9.21,0,0,1,2.27-6.44,7.68,7.68,0,0,1,5.91-2.5,6.88,6.88,0,0,1,2.9.55,8.13,8.13,0,0,1,2.47,1.92l.25-2.09Zm-4.53,7.48a4.85,4.85,0,0,0-1.21-3.42,4,4,0,0,0-3.13-1.33,4.44,4.44,0,0,0-3.5,1.63,6,6,0,0,0-1.41,4,5,5,0,0,0,1.17,3.42,3.87,3.87,0,0,0,3,1.33,4.64,4.64,0,0,0,3.56-1.66A5.92,5.92,0,0,0,979.43,280.47Z"/><path class="cls-1" d="M992.72,276.44l-1.53,12.41h-3.72L989,276.44h-2.11l.43-3.45h2.1l.91-7.36h3.72l-.91,7.36h3.44l-.43,3.45Z"/><path class="cls-1" d="M1003,273l-2,15.86h-3.72L999.27,273Zm1.16-7.54a1.9,1.9,0,0,1-.59,1.4,1.93,1.93,0,0,1-1.41.59,2,2,0,0,1-1.43-.61,2.07,2.07,0,0,1-.59-1.46,2,2,0,0,1,2-2,2,2,0,0,1,1.43.62A2,2,0,0,1,1004.15,265.45Z"/><path class="cls-1" d="M1023.75,280.77a8.19,8.19,0,0,1-2.53,6.11,8.46,8.46,0,0,1-6.19,2.48,8.74,8.74,0,0,1-6.3-2.34,7.9,7.9,0,0,1-2.46-6,8.13,8.13,0,0,1,2.55-6.13,8.84,8.84,0,0,1,6.39-2.46,8.45,8.45,0,0,1,6.15,2.32A7.92,7.92,0,0,1,1023.75,280.77Zm-3.76-.18a4.9,4.9,0,0,0-1.32-3.62,4.63,4.63,0,0,0-3.49-1.38,4.89,4.89,0,0,0-3.7,1.53A5.42,5.42,0,0,0,1010,281a5.24,5.24,0,0,0,1.38,3.79,4.7,4.7,0,0,0,3.57,1.46,4.57,4.57,0,0,0,3.6-1.6A5.8,5.8,0,0,0,1020,280.59Z"/><path class="cls-1" d="M1032.64,273l-.17,1.47a6.9,6.9,0,0,1,4.46-1.85,5.3,5.3,0,0,1,3.73,1.29,4.7,4.7,0,0,1,1.36,3.54,25.68,25.68,0,0,1-.2,2.89l-1.06,8.52h-3.71l1.15-9.32q.06-.52.09-.93t0-.72c0-1.44-.78-2.16-2.33-2.16a3.66,3.66,0,0,0-2.46.88,4.19,4.19,0,0,0-1.24,1.68,6.13,6.13,0,0,0-.37,1.24c-.1.49-.19,1.05-.27,1.69l-.94,7.64H1027l2-15.86Z"/><path class="cls-1" d="M404.09,273l-1.95,15.86h-3.72l.22-1.71a7.5,7.5,0,0,1-4.95,2.08,6.72,6.72,0,0,1-5.14-2.13,7.85,7.85,0,0,1-2-5.54,9.21,9.21,0,0,1,2.27-6.44,7.68,7.68,0,0,1,5.91-2.5,6.81,6.81,0,0,1,2.89.55,8,8,0,0,1,2.48,1.92l.25-2.09Zm-4.53,7.48a4.85,4.85,0,0,0-1.21-3.42,4,4,0,0,0-3.13-1.33,4.44,4.44,0,0,0-3.5,1.63,6,6,0,0,0-1.41,4,5,5,0,0,0,1.17,3.42,3.87,3.87,0,0,0,3,1.33,4.64,4.64,0,0,0,3.56-1.66A5.92,5.92,0,0,0,399.56,280.47Z"/><path class="cls-1" d="M425.22,273l-2,16c-.12,1-.26,1.79-.41,2.49a11.64,11.64,0,0,1-.51,1.79,6.83,6.83,0,0,1-1.76,2.54,8.41,8.41,0,0,1-5.85,2,9,9,0,0,1-6-1.95,5.26,5.26,0,0,1-1.65-2.22,8.66,8.66,0,0,1-.47-3.22h3.6a5,5,0,0,0,1.14,3.26,4.26,4.26,0,0,0,3.13,1,4.69,4.69,0,0,0,3.49-1.22,6.61,6.61,0,0,0,1.52-3.89l.26-2.17a8,8,0,0,1-4.94,1.8,7.05,7.05,0,0,1-5.34-2.2,7.92,7.92,0,0,1-2.11-5.63,8.66,8.66,0,0,1,2.44-6.28,8.26,8.26,0,0,1,6.15-2.5,6.65,6.65,0,0,1,2.86.52,7.69,7.69,0,0,1,2.48,1.83l.23-2ZM421,280.52a4.68,4.68,0,0,0-1.32-3.47,4.59,4.59,0,0,0-3.43-1.33,4.73,4.73,0,0,0-3.67,1.62,5.72,5.72,0,0,0-1.45,4,4.91,4.91,0,0,0,1.25,3.47,4.45,4.45,0,0,0,3.33,1.3,5,5,0,0,0,3.79-1.59A5.63,5.63,0,0,0,421,280.52Z"/><path class="cls-1" d="M434.15,273l-2,15.86h-3.72l2-15.86Zm1.16-7.54a2,2,0,0,1-2,2,2,2,0,0,1-1.44-.61,2.11,2.11,0,0,1-.59-1.46,2,2,0,0,1,2-2,2.12,2.12,0,0,1,2.05,2.07Z"/><path class="cls-1" d="M444.6,260.42l-3.48,28.43H437.4l3.5-28.43Z"/><path class="cls-1" d="M450.12,282.25a3.75,3.75,0,0,0,1.22,2.88,4.46,4.46,0,0,0,3.13,1.13,4.65,4.65,0,0,0,4-1.95l2.78,1.53a9,9,0,0,1-3,2.73,8.62,8.62,0,0,1-3.88.79,8,8,0,0,1-5.88-2.17,7.86,7.86,0,0,1-2.18-5.81,9,9,0,0,1,2.4-6.37,8,8,0,0,1,6.05-2.54,7.06,7.06,0,0,1,5.57,2.29,8.91,8.91,0,0,1,2.07,6.18c0,.27,0,.71-.05,1.31Zm8.54-3q-.59-3.67-4.06-3.67-3.28,0-4.27,3.67Z"/><path class="cls-1" d="M495.77,260.42l-3.5,28.43h-3.71l.21-1.7a9.8,9.8,0,0,1-2.39,1.67,6.6,6.6,0,0,1-2.46.4,7.24,7.24,0,0,1-5.46-2.2,8,8,0,0,1-2.12-5.73,8.71,8.71,0,0,1,2.32-6.21,7.68,7.68,0,0,1,5.85-2.47,6.6,6.6,0,0,1,3,.62,9.68,9.68,0,0,1,2.67,2.17l1.84-15Zm-6.13,19.81a4.29,4.29,0,0,0-4.51-4.51,4.59,4.59,0,0,0-3.62,1.63,6.07,6.07,0,0,0-1.43,4.13,4.67,4.67,0,0,0,1.23,3.38,4.35,4.35,0,0,0,3.26,1.27,4.56,4.56,0,0,0,3.59-1.72A6.09,6.09,0,0,0,489.64,280.23Z"/><path class="cls-1" d="M501.56,282.25a3.78,3.78,0,0,0,1.21,2.88,4.48,4.48,0,0,0,3.14,1.13,4.62,4.62,0,0,0,4-1.95l2.78,1.53a8.89,8.89,0,0,1-3,2.73,8.54,8.54,0,0,1-3.87.79,8,8,0,0,1-5.88-2.17,7.83,7.83,0,0,1-2.19-5.81,9,9,0,0,1,2.41-6.37,8,8,0,0,1,6.05-2.54,7.07,7.07,0,0,1,5.57,2.29,8.91,8.91,0,0,1,2.07,6.18c0,.27,0,.71,0,1.31Zm8.54-3c-.39-2.45-1.75-3.67-4.06-3.67s-3.61,1.22-4.27,3.67Z"/><path class="cls-1" d="M532.57,273l-10.9,17.92L516,273h3.88l2.72,10.14,5.7-10.14Z"/><path class="cls-1" d="M537,282.25a3.75,3.75,0,0,0,1.22,2.88,4.46,4.46,0,0,0,3.13,1.13,4.65,4.65,0,0,0,4-1.95l2.77,1.53a8.89,8.89,0,0,1-3,2.73,8.54,8.54,0,0,1-3.87.79,8,8,0,0,1-5.88-2.17,7.82,7.82,0,0,1-2.18-5.81,9,9,0,0,1,2.4-6.37,8,8,0,0,1,6-2.54,7.06,7.06,0,0,1,5.57,2.29,8.91,8.91,0,0,1,2.07,6.18c0,.27,0,.71,0,1.31Zm8.54-3c-.39-2.45-1.75-3.67-4.06-3.67s-3.61,1.22-4.27,3.67Z"/><path class="cls-1" d="M559.7,260.42l-3.48,28.43h-3.73L556,260.42Z"/><path class="cls-1" d="M578.93,280.77a8.19,8.19,0,0,1-2.53,6.11,8.48,8.48,0,0,1-6.19,2.48,8.74,8.74,0,0,1-6.3-2.34,7.9,7.9,0,0,1-2.46-6,8.16,8.16,0,0,1,2.54-6.13,8.88,8.88,0,0,1,6.4-2.46,8.46,8.46,0,0,1,6.15,2.32A7.92,7.92,0,0,1,578.93,280.77Zm-3.76-.18a4.86,4.86,0,0,0-1.33-3.62,4.61,4.61,0,0,0-3.48-1.38,4.92,4.92,0,0,0-3.71,1.53,5.46,5.46,0,0,0-1.46,3.89,5.24,5.24,0,0,0,1.38,3.79,4.7,4.7,0,0,0,3.57,1.46,4.57,4.57,0,0,0,3.6-1.6A5.8,5.8,0,0,0,575.17,280.59Z"/><path class="cls-1" d="M587.82,273l-.2,1.67a7.68,7.68,0,0,1,5.06-2.05,7,7,0,0,1,5.27,2.2,7.72,7.72,0,0,1,2.11,5.57,8.81,8.81,0,0,1-2.41,6.3,7.79,7.79,0,0,1-5.94,2.54,6.76,6.76,0,0,1-3-.57,8.65,8.65,0,0,1-2.58-2.07l-1.4,11.35H581L584.1,273Zm8.52,7.55a5,5,0,0,0-1.21-3.46,4,4,0,0,0-3.1-1.36,4.9,4.9,0,0,0-3.77,1.65,5.78,5.78,0,0,0-1.52,4.06,4.58,4.58,0,0,0,1.28,3.38,4.38,4.38,0,0,0,3.3,1.32,4.6,4.6,0,0,0,3.57-1.62A5.85,5.85,0,0,0,596.34,280.54Z"/><path class="cls-1" d="M609.06,273l-.16,1.48a6,6,0,0,1,4.36-1.88,4.07,4.07,0,0,1,2.31.55,4.43,4.43,0,0,1,1.44,2,6.94,6.94,0,0,1,5.09-2.5q4.71,0,4.71,4.32c0,.29,0,.7-.07,1.23s-.12,1.18-.21,1.95l-1.08,8.74h-3.72l1.14-9.17a18.1,18.1,0,0,0,.15-1.89,1.83,1.83,0,0,0-2.08-2.07,3.86,3.86,0,0,0-1.43.24,2.7,2.7,0,0,0-1,.76,4.17,4.17,0,0,0-.71,1.33,10.94,10.94,0,0,0-.43,1.95l-1.07,8.85h-3.72l1.16-9.41c.1-.85.15-1.44.15-1.75,0-1.31-.71-2-2.14-2-2.07,0-3.27,1.43-3.62,4.29l-1.1,8.84h-3.72l2-15.86Z"/><path class="cls-1" d="M634.46,282.25a3.75,3.75,0,0,0,1.21,2.88,4.46,4.46,0,0,0,3.13,1.13,4.63,4.63,0,0,0,4-1.95l2.78,1.53a9,9,0,0,1-3,2.73,8.62,8.62,0,0,1-3.88.79,8,8,0,0,1-5.87-2.17,7.83,7.83,0,0,1-2.19-5.81,8.93,8.93,0,0,1,2.41-6.37,8,8,0,0,1,6-2.54,7,7,0,0,1,5.57,2.29,8.91,8.91,0,0,1,2.07,6.18c0,.27,0,.71,0,1.31Zm8.53-3q-.59-3.67-4.06-3.67c-2.18,0-3.61,1.22-4.27,3.67Z"/><path class="cls-1" d="M655.65,273l-.16,1.47a6.88,6.88,0,0,1,4.46-1.85,5.26,5.26,0,0,1,3.72,1.29,4.66,4.66,0,0,1,1.36,3.54,25.68,25.68,0,0,1-.2,2.89l-1.06,8.52h-3.71l1.15-9.32a9,9,0,0,0,.09-.93q0-.41,0-.72c0-1.44-.78-2.16-2.33-2.16a3.61,3.61,0,0,0-2.45.88,4.13,4.13,0,0,0-1.25,1.68,6.13,6.13,0,0,0-.37,1.24c-.1.49-.19,1.05-.27,1.69l-.94,7.64H650L652,273Z"/><path class="cls-1" d="M674.48,276.44,673,288.85h-3.72l1.53-12.41h-2.11l.42-3.45h2.11l.91-7.36h3.72L674.9,273h3.43l-.42,3.45Z"/><text class="cls-4" transform="translate(694.31 284.18)">//</text></svg>